HIERARCHY
ROOT Hips
{
  OFFSET 0.0 0.0 0.0
  CHANNELS 6 Xposition Yposition Zposition Zrotation Xrotation Yrotation
  JOINT Spine
  {
    OFFSET 0.0 10.0 0.0
    CHANNELS 3 Zrotation Xrotation Yrotation
    JOINT Chest
    {
      OFFSET 0.0 10.0 0.0
      CHANNELS 3 Zrotation Xrotation Yrotation
      JOINT Neck
      {
        OFFSET 0.0 5.0 0.0
        CHANNELS 3 Zrotation Xrotation Yrotation
        JOINT Head
        {
          OFFSET 0.0 5.0 0.0
          CHANNELS 3 Zrotation Xrotation Yrotation
          End Site
          {
            OFFSET 0.0 3.0 0.0
          }
        }
      }
      JOINT LeftShoulder
      {
        OFFSET 5.0 3.0 0.0
        CHANNELS 3 Zrotation Xrotation Yrotation
        JOINT LeftArm
        {
          OFFSET 10.0 0.0 0.0
          CHANNELS 3 Zrotation Xrotation Yrotation
          JOINT LeftForeArm
          {
            OFFSET 10.0 0.0 0.0
            CHANNELS 3 Zrotation Xrotation Yrotation
            JOINT LeftHand
            {
              OFFSET 8.0 0.0 0.0
              CHANNELS 3 Zrotation Xrotation Yrotation
              End Site
              {
                OFFSET 3.0 0.0 0.0
              }
            }
          }
        }
      }
      JOINT RightShoulder
      {
        OFFSET -5.0 3.0 0.0
        CHANNELS 3 Zrotation Xrotation Yrotation
        JOINT RightArm
        {
          OFFSET -10.0 0.0 0.0
          CHANNELS 3 Zrotation Xrotation Yrotation
          JOINT RightForeArm
          {
            OFFSET -10.0 0.0 0.0
            CHANNELS 3 Zrotation Xrotation Yrotation
            JOINT RightHand
            {
              OFFSET -8.0 0.0 0.0
              CHANNELS 3 Zrotation Xrotation Yrotation
              End Site
              {
                OFFSET -3.0 0.0 0.0
              }
            }
          }
        }
      }
    }
  }
  JOINT LeftHip
  {
    OFFSET 5.0 -2.0 0.0
    CHANNELS 3 Zrotation Xrotation Yrotation
    JOINT LeftThigh
    {
      OFFSET 0.0 -20.0 0.0
      CHANNELS 3 Zrotation Xrotation Yrotation
      JOINT LeftShin
      {
        OFFSET 0.0 -20.0 0.0
        CHANNELS 3 Zrotation Xrotation Yrotation
        JOINT LeftFoot
        {
          OFFSET 0.0 -5.0 0.0
          CHANNELS 3 Zrotation Xrotation Yrotation
          End Site
          {
            OFFSET 0.0 -2.0 5.0
          }
        }
      }
    }
  }
  JOINT RightHip
  {
    OFFSET -5.0 -2.0 0.0
    CHANNELS 3 Zrotation Xrotation Yrotation
    JOINT RightThigh
    {
      OFFSET 0.0 -20.0 0.0
      CHANNELS 3 Zrotation Xrotation Yrotation
      JOINT RightShin
      {
        OFFSET 0.0 -20.0 0.0
        CHANNELS 3 Zrotation Xrotation Yrotation
        JOINT RightFoot
        {
          OFFSET 0.0 -5.0 0.0
          CHANNELS 3 Zrotation Xrotation Yrotation
          End Site
          {
            OFFSET 0.0 -2.0 5.0
          }
        }
      }
    }
  }
}
MOTION
Frames: 18
Frame Time: 0.033333
31.679926 40.788690 0.623053 0.263877 0.000000 0.000000 0.000000 0.000000 0.000000 0.000000 0.131938 0.000000 0.000000 0.000000 0.000000 0.000000 0.079163 0.000000 0.000000 0.000000 -10.000000 0.000000 0.000000 -2.366071 0.000000 0.000000 -2.366071 0.000000 0.000000 0.000000 0.000000 0.000000 10.000000 0.000000 0.000000 2.366071 0.000000 0.000000 0.000000 0.000000 0.000000 0.000000 0.000000 0.000000 0.000000 0.000000 0.000000 7.886904 0.000000 0.000000 0.000000 0.000000 0.000000 0.000000 0.000000 0.000000 0.000000 0.000000 0.000000 -7.886904 0.000000 0.000000 7.886904 0.000000 0.000000 0.000000
32.207925 42.287577 1.627294 0.788690 0.000000 0.000000 0.000000 0.000000 0.000000 0.000000 0.394345 0.000000 0.000000 0.000000 0.000000 0.000000 0.236607 0.000000 0.000000 0.000000 -10.000000 0.000000 0.000000 -6.862730 0.000000 0.000000 -6.862730 0.000000 0.000000 0.000000 0.000000 0.000000 10.000000 0.000000 0.000000 6.862730 0.000000 0.000000 0.000000 0.000000 0.000000 0.000000 0.000000 0.000000 0.000000 0.000000 0.000000 22.875765 0.000000 0.000000 0.000000 0.000000 0.000000 0.000000 0.000000 0.000000 0.000000 0.000000 0.000000 -22.875765 0.000000 0.000000 22.875765 0.000000 0.000000 0.000000
32.735923 43.558791 1.999826 1.304717 0.000000 0.000000 0.000000 0.000000 0.000000 0.000000 0.652359 0.000000 0.000000 0.000000 0.000000 0.000000 0.391415 0.000000 0.000000 0.000000 -10.000000 0.000000 0.000000 -10.676374 0.000000 0.000000 -10.676374 0.000000 0.000000 0.000000 0.000000 0.000000 10.000000 0.000000 0.000000 10.676374 0.000000 0.000000 0.000000 0.000000 0.000000 0.000000 0.000000 0.000000 0.000000 0.000000 0.000000 35.587912 0.000000 0.000000 0.000000 0.000000 0.000000 0.000000 0.000000 0.000000 0.000000 0.000000 0.000000 -35.587912 0.000000 0.000000 35.587912 0.000000 0.000000 0.000000
33.263922 44.475816 1.596034 1.806208 0.000000 0.000000 0.000000 0.000000 0.000000 0.000000 0.903104 0.000000 0.000000 0.000000 0.000000 0.000000 0.541862 0.000000 0.000000 0.000000 -10.000000 0.000000 0.000000 -13.427449 0.000000 0.000000 -13.427449 0.000000 0.000000 0.000000 0.000000 0.000000 10.000000 0.000000 0.000000 13.427449 0.000000 0.000000 0.000000 0.000000 0.000000 0.000000 0.000000 0.000000 0.000000 0.000000 0.000000 44.758165 0.000000 0.000000 0.000000 0.000000 0.000000 0.000000 0.000000 0.000000 0.000000 0.000000 0.000000 -44.758165 0.000000 0.000000 44.758165 0.000000 0.000000 0.000000
33.791921 44.947385 0.572670 2.287577 0.000000 0.000000 0.000000 0.000000 0.000000 0.000000 1.143788 0.000000 0.000000 0.000000 0.000000 0.000000 0.686273 0.000000 0.000000 0.000000 -10.000000 0.000000 0.000000 -14.842156 0.000000 0.000000 -14.842156 0.000000 0.000000 0.000000 0.000000 0.000000 10.000000 0.000000 0.000000 14.842156 0.000000 0.000000 0.000000 0.000000 0.000000 0.000000 0.000000 0.000000 0.000000 0.000000 0.000000 49.473852 0.000000 0.000000 0.000000 0.000000 0.000000 0.000000 0.000000 0.000000 0.000000 0.000000 0.000000 -49.473852 0.000000 0.000000 49.473852 0.000000 0.000000 0.000000
34.319920 44.926564 -0.673003 2.743459 0.000000 0.000000 0.000000 0.000000 0.000000 0.000000 1.371729 0.000000 0.000000 0.000000 0.000000 0.000000 0.823038 0.000000 0.000000 0.000000 -10.000000 0.000000 0.000000 -14.779693 0.000000 0.000000 -14.779693 0.000000 0.000000 0.000000 0.000000 0.000000 10.000000 0.000000 0.000000 14.779693 0.000000 0.000000 0.000000 0.000000 0.000000 0.000000 0.000000 0.000000 0.000000 0.000000 0.000000 49.265644 0.000000 0.000000 0.000000 0.000000 0.000000 0.000000 0.000000 0.000000 0.000000 0.000000 0.000000 -49.265644 0.000000 0.000000 49.265644 0.000000 0.000000 0.000000
34.847919 44.415426 -1.657419 3.168777 0.000000 0.000000 0.000000 0.000000 0.000000 0.000000 1.584388 0.000000 0.000000 0.000000 0.000000 0.000000 0.950633 0.000000 0.000000 0.000000 -10.000000 0.000000 0.000000 -13.246279 0.000000 0.000000 -13.246279 0.000000 0.000000 0.000000 0.000000 0.000000 10.000000 0.000000 0.000000 13.246279 0.000000 0.000000 0.000000 0.000000 0.000000 0.000000 0.000000 0.000000 0.000000 0.000000 0.000000 44.154263 0.000000 0.000000 0.000000 0.000000 0.000000 0.000000 0.000000 0.000000 0.000000 0.000000 0.000000 -44.154263 0.000000 0.000000 44.154263 0.000000 0.000000 0.000000
35.375917 43.464842 -1.998432 3.558791 0.000000 0.000000 0.000000 0.000000 0.000000 0.000000 1.779396 0.000000 0.000000 0.000000 0.000000 0.000000 1.067637 0.000000 0.000000 0.000000 -10.000000 0.000000 0.000000 -10.394526 0.000000 0.000000 -10.394526 0.000000 0.000000 0.000000 0.000000 0.000000 10.000000 0.000000 0.000000 10.394526 0.000000 0.000000 0.000000 0.000000 0.000000 0.000000 0.000000 0.000000 0.000000 0.000000 0.000000 34.648421 0.000000 0.000000 0.000000 0.000000 0.000000 0.000000 0.000000 0.000000 0.000000 0.000000 0.000000 -34.648421 0.000000 0.000000 34.648421 0.000000 0.000000 0.000000
35.903916 42.169419 -1.563663 3.909157 0.000000 0.000000 0.000000 0.000000 0.000000 0.000000 1.954579 0.000000 0.000000 0.000000 0.000000 0.000000 1.172747 0.000000 0.000000 0.000000 -10.000000 0.000000 0.000000 -6.508256 0.000000 0.000000 -6.508256 0.000000 0.000000 0.000000 0.000000 0.000000 10.000000 0.000000 0.000000 6.508256 0.000000 0.000000 0.000000 0.000000 0.000000 0.000000 0.000000 0.000000 0.000000 0.000000 0.000000 21.694187 0.000000 0.000000 0.000000 0.000000 0.000000 0.000000 0.000000 0.000000 0.000000 0.000000 0.000000 -21.694187 0.000000 0.000000 21.694187 0.000000 0.000000 0.000000
36.431915 40.658083 -0.521887 4.215972 0.000000 0.000000 0.000000 0.000000 0.000000 0.000000 2.107986 0.000000 0.000000 0.000000 0.000000 0.000000 1.264792 0.000000 0.000000 0.000000 -10.000000 0.000000 0.000000 -1.974250 0.000000 0.000000 -1.974250 0.000000 0.000000 0.000000 0.000000 0.000000 10.000000 0.000000 0.000000 1.974250 0.000000 0.000000 0.000000 0.000000 0.000000 0.000000 0.000000 0.000000 0.000000 0.000000 0.000000 6.580835 0.000000 0.000000 0.000000 0.000000 0.000000 0.000000 0.000000 0.000000 0.000000 0.000000 0.000000 -6.580835 0.000000 0.000000 6.580835 0.000000 0.000000 0.000000
36.959914 40.918748 0.722483 4.475816 0.000000 0.000000 0.000000 0.000000 0.000000 0.000000 2.237908 0.000000 0.000000 0.000000 0.000000 0.000000 1.342745 0.000000 0.000000 0.000000 -10.000000 0.000000 0.000000 2.756243 0.000000 0.000000 0.000000 0.000000 0.000000 0.000000 0.000000 0.000000 10.000000 0.000000 0.000000 -2.756243 0.000000 0.000000 -2.756243 0.000000 0.000000 0.000000 0.000000 0.000000 0.000000 0.000000 0.000000 -9.187476 0.000000 0.000000 9.187476 0.000000 0.000000 0.000000 0.000000 0.000000 0.000000 0.000000 0.000000 9.187476 0.000000 0.000000 0.000000 0.000000 0.000000 0.000000
37.487912 42.404140 1.686389 4.685796 0.000000 0.000000 0.000000 0.000000 0.000000 0.000000 2.342898 0.000000 0.000000 0.000000 0.000000 0.000000 1.405739 0.000000 0.000000 0.000000 -10.000000 0.000000 0.000000 7.212420 0.000000 0.000000 0.000000 0.000000 0.000000 0.000000 0.000000 0.000000 10.000000 0.000000 0.000000 -7.212420 0.000000 0.000000 -7.212420 0.000000 0.000000 0.000000 0.000000 0.000000 0.000000 0.000000 0.000000 -24.041401 0.000000 0.000000 24.041401 0.000000 0.000000 0.000000 0.000000 0.000000 0.000000 0.000000 0.000000 24.041401 0.000000 0.000000 0.000000 0.000000 0.000000 0.000000
38.015911 43.650260 1.995646 4.843572 0.000000 0.000000 0.000000 0.000000 0.000000 0.000000 2.421786 0.000000 0.000000 0.000000 0.000000 0.000000 1.453072 0.000000 0.000000 0.000000 -10.000000 0.000000 0.000000 10.950780 0.000000 0.000000 0.000000 0.000000 0.000000 0.000000 0.000000 0.000000 10.000000 0.000000 0.000000 -10.950780 0.000000 0.000000 -10.950780 0.000000 0.000000 0.000000 0.000000 0.000000 0.000000 0.000000 0.000000 -36.502602 0.000000 0.000000 36.502602 0.000000 0.000000 0.000000 0.000000 0.000000 0.000000 0.000000 0.000000 36.502602 0.000000 0.000000 0.000000 0.000000 0.000000 0.000000
38.543910 44.533087 1.530202 4.947385 0.000000 0.000000 0.000000 0.000000 0.000000 0.000000 2.473693 0.000000 0.000000 0.000000 0.000000 0.000000 1.484216 0.000000 0.000000 0.000000 -10.000000 0.000000 0.000000 13.599262 0.000000 0.000000 0.000000 0.000000 0.000000 0.000000 0.000000 0.000000 10.000000 0.000000 0.000000 -13.599262 0.000000 0.000000 -13.599262 0.000000 0.000000 0.000000 0.000000 0.000000 0.000000 0.000000 0.000000 -45.330873 0.000000 0.000000 45.330873 0.000000 0.000000 0.000000 0.000000 0.000000 0.000000 0.000000 0.000000 45.330873 0.000000 0.000000 0.000000 0.000000 0.000000 0.000000
39.071909 44.964758 0.470740 4.996080 0.000000 0.000000 0.000000 0.000000 0.000000 0.000000 2.498040 0.000000 0.000000 0.000000 0.000000 0.000000 1.498824 0.000000 0.000000 0.000000 -10.000000 0.000000 0.000000 14.894274 0.000000 0.000000 0.000000 0.000000 0.000000 0.000000 0.000000 0.000000 10.000000 0.000000 0.000000 -14.894274 0.000000 0.000000 -14.894274 0.000000 0.000000 0.000000 0.000000 0.000000 0.000000 0.000000 0.000000 -49.647580 0.000000 0.000000 49.647580 0.000000 0.000000 0.000000 0.000000 0.000000 0.000000 0.000000 0.000000 49.647580 0.000000 0.000000 0.000000 0.000000 0.000000 0.000000
39.599907 44.902310 -0.771460 4.989114 0.000000 0.000000 0.000000 0.000000 0.000000 0.000000 2.494557 0.000000 0.000000 0.000000 0.000000 0.000000 1.496734 0.000000 0.000000 0.000000 -10.000000 0.000000 0.000000 14.706931 0.000000 0.000000 0.000000 0.000000 0.000000 0.000000 0.000000 0.000000 10.000000 0.000000 0.000000 -14.706931 0.000000 0.000000 -14.706931 0.000000 0.000000 0.000000 0.000000 0.000000 0.000000 0.000000 0.000000 -49.023102 0.000000 0.000000 49.023102 0.000000 0.000000 0.000000 0.000000 0.000000 0.000000 0.000000 0.000000 49.023102 0.000000 0.000000 0.000000 0.000000 0.000000 0.000000
40.127906 44.351959 -1.714184 4.926564 0.000000 0.000000 0.000000 0.000000 0.000000 0.000000 2.463282 0.000000 0.000000 0.000000 0.000000 0.000000 1.477969 0.000000 0.000000 0.000000 -10.000000 0.000000 0.000000 13.055877 0.000000 0.000000 0.000000 0.000000 0.000000 0.000000 0.000000 0.000000 10.000000 0.000000 0.000000 -13.055877 0.000000 0.000000 -13.055877 0.000000 0.000000 0.000000 0.000000 0.000000 0.000000 0.000000 0.000000 -43.519590 0.000000 0.000000 43.519590 0.000000 0.000000 0.000000 0.000000 0.000000 0.000000 0.000000 0.000000 43.519590 0.000000 0.000000 0.000000 0.000000 0.000000 0.000000
40.655905 43.368478 -1.991468 4.809128 0.000000 0.000000 0.000000 0.000000 0.000000 0.000000 2.404564 0.000000 0.000000 0.000000 0.000000 0.000000 1.442738 0.000000 0.000000 0.000000 -10.000000 0.000000 0.000000 10.105435 0.000000 0.000000 0.000000 0.000000 0.000000 0.000000 0.000000 0.000000 10.000000 0.000000 0.000000 -10.105435 0.000000 0.000000 -10.105435 0.000000 0.000000 0.000000 0.000000 0.000000 0.000000 0.000000 0.000000 -33.684782 0.000000 0.000000 33.684782 0.000000 0.000000 0.000000 0.000000 0.000000 0.000000 0.000000 0.000000 33.684782 0.000000 0.000000 0.000000 0.000000 0.000000 0.000000
